Coordinates
version=1
nRows=24
nColumns=22
inDegrees=yes

Units are S.I. units (second, meters, Newtons, ...)
If the header above contains a line with 'inDegrees', this indicates whether rotational values are in degrees (yes) or radians (no).

endheader
time	pelvis_tilt	pelvis_list	pelvis_rotation	pelvis_tx	pelvis_ty	pelvis_tz	hip_flexion_r	hip_adduction_r	hip_rotation_r	knee_angle_r	ankle_angle_r	subtalar_angle_r	hip_flexion_l	hip_adduction_l	hip_rotation_l	knee_angle_l	ankle_angle_l	subtalar_angle_l	lumbar_extension	lumbar_bending	lumbar_rotation
      0.01000000	     -8.29717615	      0.02874602	    -12.08324858	     -0.97577141	      0.88363548	      0.03003990	      8.91138568	     -4.33353985	      5.04333912	     -6.42143522	     10.77208230	      2.75370372	      6.08929148	     -6.71547530	    -13.13374603	     -9.09103247	     13.36793372	      7.09249169	      2.55080323	      1.24149919	     11.31435345
      0.02000000	     -8.26910259	      0.06662675	    -12.01332721	     -0.97589047	      0.88368144	      0.02994747	      8.91452640	     -4.38775929	      4.98176687	     -6.47167637	     10.78719972	      2.74551794	      6.09681457	     -6.66396162	    -13.08064538	     -9.09966617	     13.34445964	      7.12010850	      2.51104582	      1.19526319	     11.32890000
      0.03000000	     -8.25750646	      0.07055209	    -11.94837954	     -0.97604635	      0.88371722	      0.02989606	      8.91438250	     -4.39886717	      4.95966794	     -6.49179452	     10.79846188	      2.74200223	      6.12016846	     -6.65829454	    -13.02360333	     -9.11836779	     13.32416618	      7.12683952	      2.47653608	      1.18934594	     11.37392481
      0.04000000	     -8.24531971	      0.08557044	    -11.82926020	     -0.97618973	      0.88374788	      0.02974633	      8.92631848	     -4.43122190	      4.84968478	     -6.55225356	     10.83588515	      2.72583566	      6.15446531	     -6.63012187	    -12.89753658	     -9.12668121	     13.29530444	      7.13860407	      2.44601742	      1.17218046	     11.34147954
      0.05000000	     -8.24246020	      0.09237926	    -11.72671615	     -0.97636273	      0.88377014	      0.02963287	      8.94248986	     -4.44900232	      4.77721139	     -6.59509807	     10.85548430	      2.71136043	      6.20147379	     -6.61757679	    -12.79233668	     -9.14917882	     13.27285661	      7.13934853	      2.42024436	      1.16364539	     11.34991650
      0.06000000	     -8.24446235	      0.09869214	    -11.62509688	     -0.97654095	      0.88378495	      0.02951975	      8.96540064	     -4.46483344	      4.70391735	     -6.64023405	     10.87564501	      2.69500603	      6.25477933	     -6.60656261	    -12.69043561	     -9.17268782	     13.25201912	      7.13705644	      2.39931557	      1.15575295	     11.36385559
      0.07000000	     -8.25187947	      0.10486383	    -11.52720171	     -0.97672137	      0.88379146	      0.02940112	      8.99511391	     -4.47970816	      4.63367097	     -6.68576990	     10.89302854	      2.67759869	      6.31246325	     -6.59577007	    -12.59063378	     -9.19430998	     13.23069403	      7.13417094	      2.38380257	      1.15000291	     11.38101449
      0.08000000	     -8.26598493	      0.11126486	    -11.43825154	     -0.97689419	      0.88378664	      0.02929844	      9.02962744	     -4.49235001	      4.56943394	     -6.72609085	     10.90792891	      2.66032554	      6.37205739	     -6.58648587	    -12.49950591	     -9.21100773	     13.20901322	      7.13101893	      2.37674649	      1.14277850	     11.40706704
      0.09000000	     -8.26977623	      0.11276408	    -11.37945467	     -0.97705399	      0.88379851	      0.02924889	      9.04079228	     -4.49728327	      4.54654480	     -6.73511310	     10.91193758	      2.65523434	      6.40760626	     -6.58410838	    -12.45783955	     -9.22045018	     13.19495986	      7.13105352	      2.35760420	      1.13659290	     11.47132643
      0.10000000	     -8.30706449	      0.12951140	    -11.29631807	     -0.97721167	      0.88375457	      0.02914406	      9.10757956	     -4.51594818	      4.47287617	     -6.78641189	     10.92831626	      2.63521298	      6.47724937	     -6.56432379	    -12.36072665	     -9.20936925	     13.16105564	      7.12806896	      2.38111988	      1.11998194	     11.48529410
      0.11000000	     -8.34357097	      0.14563043	    -11.24684712	     -0.97737487	      0.88370778	      0.02909533	      9.16648530	     -4.52885678	      4.44704542	     -6.81324202	     10.93530633	      2.62301632	      6.53951631	     -6.55073726	    -12.31391779	     -9.20161000	     13.13901625	      7.12052840	      2.40225665	      1.10197116	     11.54081294
      0.12000000	     -8.35535519	      0.14978684	    -11.21153410	     -0.97751719	      0.88369622	      0.02907290	      9.18221473	     -4.53284677	      4.43360001	     -6.81061000	     10.93759235	      2.62097117	      6.56803450	     -6.54754874	    -12.29372119	     -9.19512704	     13.12882281	      7.11988281	      2.39266133	      1.09006131	     11.60978547
      0.13000000	     -8.41480424	      0.19043060	    -11.19159825	     -0.97769771	      0.88360586	      0.02905078	      9.28384697	     -4.56323685	      4.43818377	     -6.85094608	     10.94261495	      2.61337422	      6.63503326	     -6.51140851	    -12.25940168	     -9.15144173	     13.08501060	      7.11322705	      2.44272191	      1.04935811	     11.68103477
      0.14000000	     -8.46607784	      0.22426239	    -11.18114301	     -0.97788122	      0.88351844	      0.02905409	      9.36889602	     -4.58636519	      4.45252613	     -6.87591361	     10.95498469	      2.61061800	      6.70192684	     -6.48693159	    -12.25106188	     -9.13429218	     13.06371754	      7.10216289	      2.48122171	      1.01063708	     11.76569865
      0.15000000	     -8.51390783	      0.25636123	    -11.17580660	     -0.97804834	      0.88343877	      0.02907719	      9.44475494	     -4.60680805	      4.47010760	     -6.89189851	     10.95841745	      2.61030099	      6.75675777	     -6.46437989	    -12.24048864	     -9.10713489	     13.03977262	      7.09394935	      2.51834071	      0.97022998	     11.85018067
      0.16000000	     -8.56194660	      0.28975504	    -11.17114473	     -0.97820169	      0.88335707	      0.02908644	      9.51782265	     -4.63064215	      4.48804588	     -6.90278399	     10.96524749	      2.61142477	      6.81243792	     -6.43954240	    -12.23248725	     -9.08269742	     13.01553367	      7.08615542	      2.55733076	      0.93068056	     11.93529779
      0.17000000	     -8.58095585	      0.29816513	    -11.15494275	     -0.97830283	      0.88332610	      0.02909529	      9.53523228	     -4.63591984	      4.47650645	     -6.88823376	     10.96929315	      2.61183800	      6.83806416	     -6.43679821	    -12.21768616	     -9.07272455	     13.00763903	      7.08536023	      2.56186312	      0.90991558	     12.00672405
      0.18000000	     -8.63512696	      0.33337872	    -11.14523627	     -0.97838264	      0.88324348	      0.02910230	      9.60267108	     -4.66269405	      4.49477754	     -6.88762610	     10.96084314	      2.61485331	      6.88632383	     -6.40772414	    -12.19883197	     -9.02711237	     12.97611759	      7.08462008	      2.62069230	      0.86797425	     12.07962101
      0.19000000	     -8.65020659	      0.33564731	    -11.12104991	     -0.97840884	      0.88322333	      0.02910339	      9.60518768	     -4.66528457	      4.47398606	     -6.86867430	     10.96635646	      2.61555510	      6.90484648	     -6.40884344	    -12.18560663	     -9.01992146	     12.97125103	      7.08560718	      2.63149742	      0.85173755	     12.14561663
      0.20000000	     -8.67228147	      0.34048690	    -11.09790499	     -0.97840535	      0.88319968	      0.02910487	      9.60994088	     -4.66930230	      4.44942072	     -6.84161242	     10.96409714	      2.61672941	      6.92225951	     -6.40605665	    -12.16574918	     -8.99823500	     12.96523705	      7.08917420	      2.65414463	      0.83336492	     12.20892475
      0.21000000	     -8.69666523	      0.34502911	    -11.07261144	     -0.97838096	      0.88317698	      0.02910616	      9.61334796	     -4.67331683	      4.42119083	     -6.80953806	     10.95673449	      2.61875512	      6.93903831	     -6.40296278	    -12.13902318	     -8.97186684	     12.95510132	      7.09525808	      2.68193901	      0.81450914	     12.26523535
      0.22000000	     -8.71992094	      0.34705046	    -11.04324081	     -0.97833217	      0.88315889	      0.02910346	      9.61220361	     -4.67554002	      4.39033198	     -6.77750662	     10.94627055	      2.62184032	      6.95388394	     -6.40130680	    -12.10850340	     -8.94595689	     12.94254705	      7.10320511	      2.71123543	      0.79721805	     12.30889403
      0.23000000	     -8.73951807	      0.34565779	    -11.01112830	     -0.97826121	      0.88314559	      0.02907229	      9.60535183	     -4.67760766	      4.35711688	     -6.74733691	     10.93864824	      2.62472816	      6.96616421	     -6.39987199	    -12.08098818	     -8.92503767	     12.93202607	      7.11016915	      2.73643604	      0.78845660	     12.34948515
      0.24000000	     -8.76827114	      0.34221792	    -10.96281836	     -0.97817696	      0.88312602	      0.02903393	      9.59895294	     -4.67744080	      4.30551451	     -6.70600228	     10.90985232	      2.63405247	      6.98374623	     -6.39963233	    -12.01395635	     -8.88971880	     12.90597485	      7.12545843	      2.77330172	      0.78027349	     12.34571978
